<svg width="50" height="50" viewBox="0 0 50 50" fill="none" xmlns="http://www.w3.org/2000/svg">
<path d="M47 0H3C1.34315 0 0 1.34315 0 3V47C0 48.6569 1.34315 50 3 50H47C48.6569 50 50 48.6569 50 47V3C50 1.34315 48.6569 0 47 0Z" fill="#AAAEB1"/>
<path d="M26.2966 25.4887L32.6696 30.6053C33.1101 30.959 33.1101 31.5309 32.6696 31.8807L31.6106 32.731C31.1701 33.0847 30.4578 33.0847 30.022 32.731L25.5 29.108L20.9827 32.7348C20.5422 33.0884 19.8299 33.0884 19.3941 32.7348L18.3304 31.8845C17.8899 31.5309 17.8899 30.959 18.3304 30.6091L24.7034 25.4925C25.1439 25.1351 25.8561 25.1351 26.2966 25.4887V25.4887ZM24.7034 18.2652L18.3304 23.3819C17.8899 23.7355 17.8899 24.3074 18.3304 24.6573L19.3894 25.5075C19.8299 25.8612 20.5422 25.8612 20.978 25.5075L25.4953 21.8807L30.0127 25.5075C30.4531 25.8612 31.1654 25.8612 31.6012 25.5075L32.6603 24.6573C33.1007 24.3036 33.1007 23.7318 32.6603 23.3819L26.2873 18.2652C25.8561 17.9116 25.1439 17.9116 24.7034 18.2652Z" fill="white"/>
</svg>
