<svg width="50" height="50" viewBox="0 0 50 50" fill="none" xmlns="http://www.w3.org/2000/svg">
<path d="M47 0H3C1.34315 0 0 1.34315 0 3V47C0 48.6569 1.34315 50 3 50H47C48.6569 50 50 48.6569 50 47V3C50 1.34315 48.6569 0 47 0Z" fill="#AAAEB1"/>
<path d="M23.5019 20.9848V34.4643C23.5019 34.7601 23.7703 35 24.1013 35H26.8986C27.2296 35 27.498 34.7601 27.498 34.4643V20.9848H29.7987C30.8668 20.9848 31.4017 19.8307 30.6465 19.1557L26.3477 15.3138C25.8795 14.8954 25.1204 14.8954 24.6523 15.3138L20.3535 19.1557C19.5983 19.8307 20.1332 20.9848 21.2013 20.9848H23.5019Z" fill="white"/>
</svg>
